<svg xmlns="http://www.w3.org/2000/svg" viewBox="0 0 421 132" width="421" height="132" role="img" aria-label="dexpace">
  
  <path d="M32.40 99.34L32.40 99.34Q26.64 99.34 21.65 96.51Q16.66 93.68 13.68 88.21Q10.70 82.74 10.70 75.06L10.70 75.06L10.70 73.52Q10.70 65.84 13.68 60.37Q16.66 54.90 21.60 52.06Q26.54 49.23 32.40 49.23L32.40 49.23Q36.82 49.23 39.89 50.29Q42.96 51.34 44.83 52.98Q46.70 54.61 47.76 56.53L47.76 56.53L49.39 56.53L49.39 30.80L60.34 30.80L60.34 98L49.58 98L49.58 91.76L47.95 91.76Q46.22 94.64 42.67 96.99Q39.12 99.34 32.40 99.34ZM35.66 89.74L35.66 89.74Q41.62 89.74 45.55 85.86Q49.49 81.97 49.49 74.77L49.49 74.77L49.49 73.81Q49.49 66.51 45.60 62.67Q41.71 58.83 35.66 58.83L35.66 58.83Q29.71 58.83 25.73 62.67Q21.74 66.51 21.74 73.81L21.74 73.81L21.74 74.77Q21.74 81.97 25.73 85.86Q29.71 89.74 35.66 89.74ZM93.05 99.34L93.05 99.34Q85.94 99.34 80.52 96.32Q75.10 93.30 72.07 87.78Q69.05 82.26 69.05 74.86L69.05 74.86L69.05 73.71Q69.05 66.22 72.02 60.75Q75 55.28 80.38 52.26Q85.75 49.23 92.76 49.23L92.76 49.23Q99.67 49.23 104.86 52.26Q110.04 55.28 112.92 60.75Q115.80 66.22 115.80 73.52L115.80 73.52L115.80 77.46L80.18 77.46Q80.38 83.02 84.12 86.38Q87.86 89.74 93.34 89.74L93.34 89.74Q98.71 89.74 101.30 87.39Q103.90 85.04 105.24 82.06L105.24 82.06L114.36 86.77Q113.02 89.36 110.47 92.29Q107.93 95.22 103.70 97.28Q99.48 99.34 93.05 99.34ZM80.28 69.10L80.28 69.10L104.57 69.10Q104.18 64.40 100.97 61.62Q97.75 58.83 92.66 58.83L92.66 58.83Q87.38 58.83 84.22 61.62Q81.05 64.40 80.28 69.10Z" fill="#15131f"></path>
  <g transform="translate(122.12 27.4) scale(0.7)"><path d="M66 50 L83.2 83.2 L50 66 L16.8 83.2 L34 50 L16.8 16.8 L50 34 L83.2 16.8 Z" fill="#4f63e0"></path></g>
  <path d="M215.17 117.20L204.13 117.20L204.13 50.58L214.98 50.58L214.98 56.82L216.61 56.82Q218.24 53.84 221.84 51.54Q225.44 49.23 232.16 49.23L232.16 49.23Q237.92 49.23 242.86 52.06Q247.81 54.90 250.78 60.37Q253.76 65.84 253.76 73.52L253.76 73.52L253.76 75.06Q253.76 82.74 250.78 88.21Q247.81 93.68 242.91 96.51Q238.02 99.34 232.16 99.34L232.16 99.34Q227.65 99.34 224.62 98.29Q221.60 97.23 219.73 95.50Q217.86 93.78 216.80 92.05L216.80 92.05L215.17 92.05L215.17 117.20ZM228.90 89.74L228.90 89.74Q234.94 89.74 238.83 85.86Q242.72 81.97 242.72 74.77L242.72 74.77L242.72 73.81Q242.72 66.51 238.78 62.67Q234.85 58.83 228.90 58.83L228.90 58.83Q222.94 58.83 218.96 62.67Q214.98 66.51 214.98 73.81L214.98 73.81L214.98 74.77Q214.98 81.97 218.96 85.86Q222.94 89.74 228.90 89.74ZM277.16 99.34L277.16 99.34Q272.17 99.34 268.14 97.57Q264.10 95.79 261.75 92.43Q259.40 89.07 259.40 84.18L259.40 84.18Q259.40 79.38 261.75 76.11Q264.10 72.85 268.23 71.17Q272.36 69.49 277.64 69.49L277.64 69.49L291.37 69.49L291.37 66.61Q291.37 62.86 289.06 60.51Q286.76 58.16 281.86 58.16L281.86 58.16Q277.06 58.16 274.62 60.42Q272.17 62.67 271.40 66.22L271.40 66.22L261.22 62.86Q262.38 59.12 264.92 56.05Q267.46 52.98 271.69 51.10Q275.91 49.23 282.06 49.23L282.06 49.23Q291.37 49.23 296.70 53.89Q302.02 58.54 302.02 67.38L302.02 67.38L302.02 86Q302.02 88.88 304.71 88.88L304.71 88.88L308.74 88.88L308.74 98L300.97 98Q297.51 98 295.30 96.27Q293.10 94.54 293.10 91.57L293.10 91.57L293.10 91.38L291.46 91.38Q290.89 92.72 289.45 94.64Q288.01 96.56 285.08 97.95Q282.15 99.34 277.16 99.34ZM278.98 90.32L278.98 90.32Q284.46 90.32 287.91 87.20Q291.37 84.08 291.37 78.80L291.37 78.80L291.37 77.84L278.31 77.84Q274.76 77.84 272.55 79.38Q270.34 80.91 270.34 83.89L270.34 83.89Q270.34 86.77 272.65 88.54Q274.95 90.32 278.98 90.32ZM337.04 99.34L337.04 99.34Q330.13 99.34 324.56 96.46Q318.99 93.58 315.78 88.11Q312.56 82.64 312.56 74.96L312.56 74.96L312.56 73.62Q312.56 65.94 315.78 60.46Q318.99 54.99 324.56 52.11Q330.13 49.23 337.04 49.23L337.04 49.23Q343.86 49.23 348.70 51.63Q353.55 54.03 356.53 58.21Q359.50 62.38 360.37 67.57L360.37 67.57L349.71 69.78Q349.33 66.80 347.89 64.35Q346.45 61.90 343.81 60.46Q341.17 59.02 337.33 59.02L337.33 59.02Q333.39 59.02 330.27 60.70Q327.15 62.38 325.38 65.74Q323.60 69.10 323.60 73.81L323.60 73.81L323.60 74.77Q323.60 79.47 325.38 82.78Q327.15 86.10 330.27 87.82Q333.39 89.55 337.33 89.55L337.33 89.55Q343.18 89.55 346.21 86.53Q349.23 83.50 350 78.70L350 78.70L360.66 81.20Q359.50 86.19 356.53 90.32Q353.55 94.45 348.70 96.90Q343.86 99.34 337.04 99.34ZM390.10 99.34L390.10 99.34Q383 99.34 377.58 96.32Q372.15 93.30 369.13 87.78Q366.10 82.26 366.10 74.86L366.10 74.86L366.10 73.71Q366.10 66.22 369.08 60.75Q372.06 55.28 377.43 52.26Q382.81 49.23 389.82 49.23L389.82 49.23Q396.73 49.23 401.91 52.26Q407.10 55.28 409.98 60.75Q412.86 66.22 412.86 73.52L412.86 73.52L412.86 77.46L377.24 77.46Q377.43 83.02 381.18 86.38Q384.92 89.74 390.39 89.74L390.39 89.74Q395.77 89.74 398.36 87.39Q400.95 85.04 402.30 82.06L402.30 82.06L411.42 86.77Q410.07 89.36 407.53 92.29Q404.98 95.22 400.76 97.28Q396.54 99.34 390.10 99.34ZM377.34 69.10L377.34 69.10L401.62 69.10Q401.24 64.40 398.02 61.62Q394.81 58.83 389.72 58.83L389.72 58.83Q384.44 58.83 381.27 61.62Q378.10 64.40 377.34 69.10Z" fill="#15131f"></path>
</svg>